<svg width="140" height="36" viewBox="0 0 140 36" fill="none" xmlns="http://www.w3.org/2000/svg">
<path d="M36.9332 6.36694H52.6132V10.4629H41.7972V15.9669H52.0372V19.9989H41.7972V29.0869H36.9332V6.36694Z" fill="#0F172A"/>
<path d="M55.9897 12.1269H60.7897V29.0869H55.9897V12.1269ZM55.8937 9.91894V6.36694H60.8537V9.91894H55.8937Z" fill="#0F172A"/>
<path d="M64.9897 6.36694H69.7897V24.1589C69.7897 25.0229 70.2697 25.5029 71.1017 25.5029H72.3177V29.0869H69.6937C66.8457 29.0869 64.9897 27.3909 64.9897 24.3829V6.36694Z" fill="#0F172A"/>
<path d="M74.3757 20.6069C74.3757 15.2629 77.7997 11.7429 83.0797 11.7429C87.7837 11.7429 91.3997 15.0069 91.3677 20.9589V21.8549H79.3997C79.5277 24.3829 80.9037 25.9189 83.0797 25.9189C84.4557 25.9189 85.7357 25.0869 86.2797 23.8069L91.1437 24.1269C90.1197 27.4229 86.9517 29.4709 83.0797 29.4709C77.7997 29.4709 74.3757 25.9509 74.3757 20.6069ZM79.4317 18.9429H86.5037C86.2477 16.3829 84.7757 15.2949 83.0797 15.2949C81.0317 15.2949 79.6877 16.6709 79.4317 18.9429Z" fill="#0F172A"/>
<path d="M94.9957 6.36694H99.8597V16.2869L108.116 6.36694H113.78L105.428 16.3829L114.292 29.0869H108.756L102.228 19.6469L99.8597 22.3989V29.0869H94.9957V6.36694Z" fill="#0F172A"/>
<path d="M117.302 12.1269H122.102V29.0869H117.302V12.1269ZM117.206 9.91894V6.36694H122.166V9.91894H117.206Z" fill="#0F172A"/>
<path d="M127.317 8.25494H132.149V12.1269H136.565V15.6789H132.149V23.5509C132.149 24.7989 132.789 25.5029 134.005 25.5029H136.597V29.0869H132.981C129.237 29.0869 127.317 27.2309 127.317 23.5509V15.6789H124.565V12.1269H127.317V8.25494Z" fill="#0F172A"/>
<path d="M8.34265 16.3969C8.93515 16.9378 9.63639 17.2825 10.4627 17.2708C11.0353 17.2627 11.571 17.0338 12.1001 16.8148C14.6111 15.7757 22.3668 12.5334 24.4815 11.2618C27.016 9.73786 26.0555 5.88222 23.06 5.79898C20.3649 5.7241 7.17424 5.66686 4.55523 5.65614C4.24941 5.65488 3.94718 5.65059 3.64819 5.71483C1.46024 6.18496 0.47438 9.09389 2.40963 10.819L8.34265 16.3969Z" fill="#0F172A"/>
<path d="M18.8232 19.6506C18.2307 19.1097 17.5295 18.765 16.7032 18.7767C16.1306 18.7848 15.5949 19.0137 15.0658 19.2327C12.5548 20.2718 4.79912 23.5141 2.68437 24.7856C0.149863 26.3096 1.11043 30.1653 4.10592 30.2485C6.80095 30.3234 19.9917 30.3806 22.6107 30.3913C22.9165 30.3926 23.2187 30.3969 23.5177 30.3327C25.7056 29.8625 26.6915 26.9536 24.7563 25.2285L18.8232 19.6506Z" fill="#475569"/>
</svg>
